<?xml version="1.0" encoding="utf-8"?>
<!-- Generator: Adobe Illustrator 28.0.0, SVG Export Plug-In . SVG Version: 6.00 Build 0)  -->
<svg version="1.1" id="Layer_1" xmlns="http://www.w3.org/2000/svg" xmlns:xlink="http://www.w3.org/1999/xlink" x="0px" y="0px"
	 width="1000px" height="817.695px" viewBox="0 0 1000 817.695" style="enable-background:new 0 0 1000 817.695;"
	 xml:space="preserve">
<style type="text/css">
	.st0{fill:#E5EEF9;}
	.st1{fill:#FFFFFF;}
	.st2{fill:#33DA82;}
	.st3{fill:#C4D7F2;}
	.st4{fill:#D7E4F9;}
	.st5{fill:#F4B545;}
	.st6{opacity:0.2;fill:#003889;}
	.st7{fill:#36588E;}
	.st8{fill:#ACC6E5;}
	.st9{fill:#1A71D8;}
	.st10{fill:#3B82F4;}
	.st11{fill:#E59D29;}
	.st12{fill:#F7C959;}
	.st13{opacity:0.22;fill:#003889;}
	.st14{fill:#15315E;}
	.st15{fill:#FDC8AA;}
	.st16{fill:#1F3A6F;}
	.st17{fill:#072542;}
	.st18{fill:#EFA37D;}
	.st19{fill:#224577;}
	.st20{fill:#F9034C;}
</style>
<g>
	<path class="st0" d="M886.223,787.704c40.559-66.946,63.909-145.479,63.909-229.468c0-244.925-198.551-443.476-443.476-443.476
		S63.181,313.312,63.181,558.236c0,83.988,23.35,162.522,63.909,229.468H886.223z"/>
	<path class="st1" d="M839.317,613.947l37.585-15.022c-1.25-32.33-1.253-32.413-2.504-64.743l-38.635-12.08
		c-8.518-18.507-12.821-27.855-21.345-46.363l15.957-37.202c-23.745-21.976-23.806-22.033-47.552-44.008l-35.861,18.778
		l-47.875-17.695l-15.028-37.587c-32.324,1.252-32.407,1.256-64.737,2.506l-12.08,38.635c-18.507,8.518-27.855,12.821-46.361,21.339
		l-37.204-15.951c-21.976,23.745-22.033,23.806-44.009,47.552l18.78,35.855l-17.695,47.875l-37.587,15.028
		c1.25,32.33,1.254,32.413,2.504,64.743l38.635,12.08c8.518,18.506,12.821,27.855,21.339,46.361l-15.951,37.205
		c23.745,21.976,23.806,22.033,47.545,44.006l35.861-18.778l47.875,17.695l15.028,37.587c32.33-1.25,32.413-1.253,64.743-2.504
		l12.074-38.637c18.513-8.516,27.861-12.818,46.367-21.336l37.204,15.951c21.976-23.745,22.033-23.806,44.008-47.552l-18.778-35.861
		L839.317,613.947z M631.009,653.412c-43.365-16.028-65.53-64.175-49.5-107.546c16.028-43.365,64.179-65.522,107.543-49.494
		c43.365,16.028,65.53,64.175,49.502,107.54C722.524,647.282,674.374,669.44,631.009,653.412z"/>
	<path class="st2" d="M996.982,454.403c0,0-34.153-14.363-65.787,133.658c-17.713,82.88-28.356,125.812-34.293,147.549l-1.897-0.314
		c14.418-62.667,42.565-202.754,16.111-241.456c0,0-31.242-4.582-25.834,124.304c2.455,58.511,3.154,94.361,3.187,116.069
		l-2.04-0.338c-10.536-51.656-34.932-154.495-65.32-173.05c0,0-23.875,6.798,21.597,97.447
		c17.499,34.883,28.834,58.493,36.164,74.351l-15.176-2.515l5.752,41.634l29.446,5.932l17.341-38.861l-14.795-2.452
		C932.389,677.839,1016.956,509.615,996.982,454.403z"/>
	<path class="st3" d="M702.049,322.343c-2.565-8.393-3.86-12.631-6.425-21.033l8.982-14.952
		c-8.864-10.764-8.889-10.79-17.745-21.554l-16.399,5.937l-19.41-10.336l-4.23-16.92c-13.876-1.346-13.91-1.346-27.786-2.691
		l-7.401,15.793c-8.393,2.557-12.64,3.852-21.033,6.408l-14.953-8.965c-10.764,8.855-10.79,8.881-21.554,17.736l5.937,16.399
		l-10.336,19.41l-16.92,4.23c-1.346,13.876-1.354,13.91-2.699,27.786l15.793,7.4c2.565,8.393,3.852,12.64,6.417,21.033
		l-8.973,14.952c8.864,10.764,8.881,10.79,17.744,21.554l16.399-5.937l19.41,10.335l4.23,16.92
		c13.876,1.346,13.91,1.354,27.786,2.699l7.4-15.793c8.393-2.565,12.631-3.852,21.033-6.417l14.952,8.973
		c4.844-3.986,7.51-6.181,9.957-8.199c3.002-2.472,5.677-4.667,11.597-9.545l-5.937-16.399l4.213-7.905l6.122-11.504l16.92-4.23
		c1.346-13.876,1.346-13.91,2.691-27.786L702.049,322.343z M655.796,351.617c-9.369,17.585-31.208,24.245-48.793,14.885
		c-17.576-9.36-24.245-31.208-14.877-48.785c9.36-17.585,31.208-24.245,48.784-14.885
		C658.495,312.201,665.155,334.041,655.796,351.617z"/>
	<ellipse class="st4" cx="462.941" cy="781.865" rx="462.941" ry="35.83"/>
	<path class="st5" d="M258.42,337.341l16.513-7.769c-1.43-14.518-1.434-14.555-2.864-29.073l-17.713-4.401
		c-4.33-8.101-6.518-12.193-10.851-20.295l6.184-17.172c-11.277-9.254-11.306-9.278-22.583-18.532l-15.637,9.413l-22.022-6.68
		l-7.772-16.514c-14.515,1.431-14.552,1.435-29.07,2.864l-4.401,17.713c-8.101,4.33-12.193,6.518-20.294,10.848l-17.173-6.181
		c-9.254,11.277-9.278,11.306-18.532,22.583l9.414,15.634l-6.68,22.022l-16.514,7.772c1.43,14.517,1.434,14.555,2.864,29.073
		l17.713,4.401c4.33,8.101,6.518,12.193,10.848,20.294l-6.181,17.173c11.277,9.254,11.306,9.278,22.58,18.531l15.637-9.413
		l22.022,6.68l7.772,16.514c14.518-1.43,14.555-1.434,29.072-2.863l4.398-17.714c8.104-4.329,12.196-6.517,20.297-10.847
		l17.173,6.181c9.254-11.277,9.278-11.306,18.532-22.583l-9.413-15.637L258.42,337.341z M165.723,360.692
		c-19.948-6.051-31.216-27.126-25.164-47.077c6.051-19.948,27.128-31.212,47.076-25.161c19.948,6.051,31.216,27.126,25.165,47.074
		C206.748,355.478,185.671,366.742,165.723,360.692z"/>
	<path class="st6" d="M356.573,508.01c-7.511,0-14.519,2.14-20.46,5.834V407.028c-5.462,2.938-11.71,4.6-18.344,4.6
		c-21.437,0-38.81-17.374-38.81-38.805s17.374-38.805,38.81-38.805c6.635,0,12.882,1.663,18.344,4.6v-51.697H336
		c-99.739,0.072-181.206,81.318-181.511,181.046c-0.217,69.639,38.748,130.139,96.048,160.807
		c12.453,6.665,21.137,18.618,23.569,32.419h62.008v-81.404c5.941,3.695,12.949,5.834,20.46,5.834
		c21.432,0,38.806-17.374,38.806-38.806S378.005,508.01,356.573,508.01z"/>
	<path class="st1" d="M340.56,500.944c-7.511,0-14.519,2.14-20.46,5.834V399.962c-5.463,2.938-11.71,4.6-18.344,4.6
		c-21.437,0-38.81-17.374-38.81-38.805c0-21.432,17.374-38.805,38.81-38.805c6.635,0,12.882,1.663,18.344,4.6v-51.697h-0.114
		c-99.739,0.072-181.206,81.318-181.511,181.046c-0.217,69.639,38.748,130.139,96.048,160.807
		c12.453,6.665,21.137,18.618,23.569,32.419H320.1v-81.404c5.941,3.695,12.949,5.835,20.46,5.835
		c21.432,0,38.806-17.374,38.806-38.806C379.366,518.319,361.992,500.944,340.56,500.944z"/>
	<path class="st5" d="M405.044,222.897v51.696c-5.462-2.933-11.716-4.599-18.351-4.599c-21.424,0-38.801,17.377-38.801,38.801
		c0,21.436,17.377,38.813,38.801,38.813c6.635,0,12.889-1.678,18.351-4.611V449.82c5.937-3.702,12.953-5.831,20.462-5.831
		c1.525,0,3.033,0.088,4.511,0.264c0.862,0.1,1.719,0.223,2.564,0.381c2.663,0.487,5.227,1.25,7.667,2.253
		c0.839,0.346,1.66,0.722,2.464,1.121c0.434,0.211,0.862,0.434,1.291,0.669c3.391,1.842,6.477,4.177,9.163,6.905
		c6.893,7.005,11.141,16.614,11.141,27.209c0,13.593-6.987,25.555-17.57,32.483c-6.101,3.995-13.393,6.318-21.231,6.318
		c-0.44,0-0.88-0.006-1.314-0.023c-0.634-0.023-1.261-0.059-1.889-0.106c-6.301-0.516-12.173-2.528-17.259-5.696v81.398h62.807
		c0.422-2.57,1.068-5.075,1.907-7.497c0.833-2.388,1.86-4.699,3.068-6.905c3.274-5.99,7.873-11.217,13.499-15.253
		c0.939-0.681,1.901-1.32,2.898-1.924c0.681-0.422,1.379-0.821,2.083-1.203c2.2-1.191,4.371-2.423,6.512-3.702
		c0.962-0.569,1.924-1.156,2.875-1.748c51.731-32.09,86.127-89.453,85.98-154.812C586.448,303.949,505.174,222.879,405.044,222.897z
		 M455.32,247.026c4.875,0,8.829,3.954,8.829,8.829c0,4.881-3.954,8.829-8.829,8.829c-4.881,0-8.829-3.948-8.829-8.829
		C446.491,250.98,450.439,247.026,455.32,247.026z"/>
	<g>
		<path class="st7" d="M464.149,255.857c0,0.917-0.134,1.8-0.395,2.624v0.008c-1.732,0.723-3.624,1.127-5.618,1.127
			c-4.651,0-8.797-2.195-11.454-5.609c-1.926-2.456-3.078-5.559-3.078-8.923c0-7.098,5.105-13.018,11.832-14.288v-11.134
			c0-1.489,1.211-2.7,2.699-2.7c1.497,0,2.708,1.211,2.708,2.7v13.582c0,1.497-1.211,2.708-2.708,2.708
			c-5.029,0-9.125,4.095-9.125,9.133c0,1.371,0.303,2.666,0.849,3.835c1.446,3.12,4.617,5.29,8.275,5.29
			c1.993,0,3.835-0.639,5.34-1.732C463.914,253.51,464.149,254.654,464.149,255.857z"/>
	</g>
	<g>
		<g>
			<path class="st7" d="M465.875,170.345c0.777,0,1.407-0.63,1.407-1.406V66.122c0-0.777-0.629-1.406-1.407-1.406
				c-0.777,0-1.406,0.63-1.406,1.406v102.816C464.469,169.715,465.098,170.345,465.875,170.345z"/>
		</g>
		<g>
			<path class="st7" d="M450.403,170.345c0.778,0,1.407-0.63,1.407-1.406V66.122c0-0.777-0.629-1.406-1.407-1.406
				c-0.777,0-1.406,0.63-1.406,1.406v102.816C448.997,169.715,449.626,170.345,450.403,170.345z"/>
		</g>
	</g>
	<g>
		<path class="st8" d="M485.448,76.736V64.042c0-0.976-0.791-1.768-1.768-1.768h-52.253c-0.976,0-1.768,0.791-1.768,1.768v12.694
			c0,0.976,0.791,1.767,1.767,1.767h52.253C484.656,78.504,485.448,77.712,485.448,76.736z"/>
	</g>
	<g>
		<path class="st7" d="M468.965,222.269c3.981,0,7.338-2.852,7.985-6.78l7.913-48.206c0.386-2.349-0.276-4.734-1.815-6.547
			c-1.541-1.815-3.789-2.854-6.169-2.854h-37.481c-2.411,0-4.676,1.063-6.219,2.914c-1.541,1.851-2.174,4.272-1.737,6.642
			l8.873,48.204c0.705,3.841,4.053,6.627,7.958,6.627H468.965z"/>
	</g>
	<g>
		<rect x="91.802" y="654.127" class="st9" width="132.265" height="127.738"/>
		<rect x="40.462" y="654.127" class="st10" width="132.265" height="127.738"/>
	</g>
	<g>
		<path class="st11" d="M602.471,780.395c-23.834,8.383-48.894,5.542-69.413-5.75c-13.884-4.217-30.605-1.96-39.366-0.229
			c-3.524,0.699-7.059-1.352-8.264-4.779l-24.07-68.436c-1.205-3.427,0.269-7.235,3.453-8.9c1.077-0.562,2.27-1.209,3.553-1.936
			c8.171-4.624,19.929-12.529,27.004-22.881c8.932-21.655,26.696-39.558,50.53-47.941c44.419-15.623,93.088,7.723,108.711,52.142
			c3.33,9.468,4.891,19.127,4.854,28.618C659.322,735.346,637.422,768.102,602.471,780.395z"/>
		<path class="st5" d="M605.818,757.14c-3.312,1.165-6.646,2.111-9.999,2.836c-16.966,4.417-33.324-0.631-48.518-7.239
			c-2.237-0.725-4.48-1.389-6.743-2.003c-4.516-1.231-9.078-2.256-13.698-3.154c-2.775-0.536-5.563-1.03-8.36-1.504
			c-18.588-0.365-32.987-13.663-40.218-30.276c-1.018-2.234-1.964-4.51-2.85-6.813c-2.718-5.93-5.464-12.358-7.068-18.62
			c8.171-4.624,19.929-12.529,27.004-22.881c8.932-21.655,26.696-39.558,50.53-47.941c44.419-15.623,93.088,7.723,108.711,52.142
			c3.33,9.468,4.891,19.127,4.854,28.618C652.073,725.884,632.848,747.633,605.818,757.14z"/>
		<path class="st1" d="M572.667,728.193c-1.832-5.21-6.299-8.743-11.373-9.626l2.719-3.662l-13.082-3.414l8.069-10.842
			l-12.106-3.157c7.305-2.909,11.073-11.099,8.442-18.578c-2.703-7.685-11.121-11.719-18.801-9.017
			c-6.719,2.363-10.646,9.102-9.714,15.898l-87.013,39.585l3.509,7.72l87.016-39.591c2.385,2.726,5.701,4.476,9.272,4.926
			l-1.026,1.382l13.081,3.409l-8.067,10.847l13.082,3.414l-0.862,1.157c-0.65,0.132-1.3,0.311-1.944,0.538
			c-5.849,2.057-9.584,7.438-9.835,13.283l-92.642,23.596l2.095,8.212l92.637-23.595c3.527,5.883,10.807,8.675,17.526,6.312
			C571.328,744.288,575.37,735.878,572.667,728.193z M532.972,686.78c-1.643-4.672,0.807-9.789,5.479-11.432
			c4.672-1.643,9.791,0.812,11.434,5.484c0.761,2.163,0.64,4.43-0.175,6.397c-0.941,2.27-2.808,4.147-5.312,5.028
			c-0.086,0.03-0.173,0.061-0.261,0.086C539.538,693.808,534.583,691.36,532.972,686.78z M550.304,736.058
			c-1.143-3.249-0.304-6.714,1.889-9.079c0.956-1.028,2.174-1.85,3.592-2.349c0.413-0.145,0.832-0.26,1.251-0.343
			c4.303-0.849,8.685,1.568,10.181,5.822c1.643,4.672-0.812,9.791-5.484,11.434C557.061,743.187,551.947,740.73,550.304,736.058z"/>
		<g>
			<path class="st1" d="M450.127,785.191c-0.063,0.449-0.18,0.884-0.339,1.307c-0.236,0.634-0.571,1.232-0.996,1.76
				c-0.711,0.882-1.663,1.584-2.802,1.984c-3.259,1.146-6.869-0.581-8.015-3.84l-24.115-68.566
				c-0.575-1.634-0.427-3.349,0.271-4.805c0.7-1.45,1.945-2.639,3.574-3.212c1.826-0.642,3.759-0.382,5.305,0.543
				c0.389,0.231,0.753,0.497,1.083,0.807c0.468,0.44,1.247,0.166,1.336-0.47c0.083-0.564,0.236-1.109,0.46-1.625
				c0.675-1.55,1.966-2.825,3.677-3.427c1.778-0.625,3.658-0.395,5.183,0.472c0.431,0.243,0.837,0.537,1.2,0.879
				c0.468,0.44,1.247,0.166,1.336-0.47c0.072-0.517,0.214-1.02,0.414-1.496c0.228-0.566,0.538-1.097,0.922-1.572
				c0.711-0.882,1.663-1.584,2.802-1.985c1.778-0.625,3.658-0.395,5.183,0.472c0.436,0.241,0.842,0.536,1.205,0.878
				c0.476,0.448,1.245,0.145,1.34-0.504c0.074-0.496,0.205-0.985,0.403-1.449c0.722-1.788,2.262-3.242,4.326-3.747
				c3.173-0.776,6.396,1.126,7.48,4.207l23.985,68.196c1.084,3.081-0.238,6.586-3.2,7.963c-1.922,0.892-4.031,0.732-5.717-0.209
				c-0.441-0.239-0.853-0.537-1.223-0.882c-0.481-0.446-1.27-0.201-1.361,0.446c-0.069,0.494-0.201,0.978-0.39,1.439
				c-0.232,0.584-0.55,1.139-0.945,1.629c-0.711,0.882-1.663,1.584-2.802,1.984c-1.754,0.617-3.612,0.401-5.13-0.443
				c-0.455-0.25-0.881-0.554-1.259-0.907c-0.468-0.44-1.247-0.166-1.336,0.47c-0.069,0.494-0.201,0.978-0.386,1.437
				c-0.647,1.632-1.968,2.988-3.747,3.613c-1.711,0.602-3.516,0.416-5.013-0.37c-0.499-0.267-0.959-0.592-1.376-0.98
				C450.995,784.28,450.217,784.554,450.127,785.191z"/>
			<path class="st8" d="M413.382,716.472l-2.669,35.114c-0.293,3.849,1.042,7.644,3.68,10.463l24.063,25.712L413.382,716.472z"/>
			<path class="st3" d="M473.846,776.848c-0.069,0.494-0.201,0.978-0.39,1.439l-26.849-76.338c0.436,0.241,0.842,0.536,1.205,0.878
				c0.476,0.448,1.245,0.145,1.34-0.504c0.074-0.496,0.205-0.985,0.403-1.449l26.874,76.41c-0.441-0.239-0.853-0.537-1.223-0.882
				C474.726,775.956,473.937,776.201,473.846,776.848z"/>
			<path class="st3" d="M461.984,781.02c-0.069,0.494-0.201,0.978-0.386,1.437L434.75,706.12c0.431,0.243,0.837,0.537,1.2,0.879
				c0.468,0.44,1.247,0.166,1.336-0.47c0.072-0.517,0.214-1.02,0.414-1.496l26.879,76.424c-0.455-0.25-0.881-0.554-1.259-0.907
				C462.852,780.11,462.074,780.384,461.984,781.02z"/>
			<path class="st3" d="M450.127,785.191c-0.063,0.449-0.18,0.884-0.339,1.307l-26.778-76.136c0.389,0.231,0.753,0.497,1.083,0.807
				c0.468,0.44,1.247,0.166,1.336-0.47c0.083-0.564,0.236-1.109,0.46-1.625l26.95,76.626c-0.499-0.267-0.959-0.592-1.376-0.98
				C450.995,784.28,450.217,784.554,450.127,785.191z"/>
			<path class="st6" d="M443.653,762.443c0.417,0.388,0.877,0.712,1.376,0.98c1.497,0.786,3.302,0.972,5.013,0.37
				c1.778-0.625,3.1-1.981,3.747-3.613c0.184-0.459,0.316-0.943,0.386-1.437c0.089-0.636,0.868-0.91,1.336-0.47
				c0.378,0.353,0.804,0.657,1.259,0.907c1.517,0.844,3.375,1.06,5.13,0.443c1.139-0.401,2.091-1.103,2.802-1.984
				c0.395-0.49,0.713-1.045,0.945-1.629c0.189-0.461,0.321-0.945,0.39-1.439c0.091-0.648,0.88-0.893,1.361-0.446
				c0.37,0.345,0.782,0.643,1.223,0.882c1.686,0.941,3.795,1.101,5.717,0.209c2.962-1.376,4.283-4.882,3.2-7.963l-8.92-25.362
				c-1.084-3.081-4.307-4.982-7.48-4.207c-2.064,0.504-3.605,1.959-4.326,3.747c-0.199,0.464-0.329,0.953-0.403,1.449
				c-0.096,0.649-0.864,0.952-1.34,0.504c-0.363-0.342-0.769-0.637-1.205-0.878c-1.526-0.868-3.405-1.098-5.183-0.472
				c-1.139,0.401-2.091,1.103-2.802,1.985c-0.384,0.475-0.694,1.006-0.922,1.572c-0.2,0.475-0.342,0.979-0.414,1.496
				c-0.089,0.636-0.868,0.91-1.336,0.47c-0.363-0.342-0.769-0.637-1.201-0.879c-1.526-0.868-3.405-1.098-5.183-0.472
				c-1.711,0.602-3.002,1.877-3.677,3.427c-0.224,0.516-0.377,1.062-0.46,1.625c-0.089,0.636-0.868,0.91-1.336,0.47
				c-0.331-0.31-0.694-0.577-1.083-0.807c-1.546-0.925-3.479-1.185-5.305-0.543c-1.629,0.573-2.875,1.762-3.574,3.212
				c-0.698,1.455-0.845,3.171-0.271,4.805l9.05,25.733c1.146,3.259,4.757,4.986,8.015,3.84c1.139-0.401,2.091-1.103,2.802-1.984
				c0.425-0.528,0.76-1.126,0.996-1.76c0.159-0.423,0.276-0.859,0.339-1.308C442.406,762.277,443.184,762.003,443.653,762.443z"/>
		</g>
		
			<ellipse transform="matrix(0.3789 -0.9254 0.9254 0.3789 -242.0527 953.4916)" class="st12" cx="589.303" cy="657.07" rx="30.552" ry="45.006"/>
	</g>
	<g>
		<path class="st1" d="M380.711,723.842c0.665,0.399,1.279,0.886,1.851,1.441c0.858,0.828,1.607,1.811,2.196,2.911
			c0.984,1.84,1.557,4.001,1.557,6.309c0,6.601-4.67,12.014-10.375,12.014H255.904c-2.861,0-5.452-1.353-7.337-3.534
			c-1.876-2.181-3.046-5.18-3.046-8.48c0-3.7,1.464-7.02,3.753-9.22c0.572-0.555,1.186-1.042,1.851-1.441
			c0.942-0.565,0.942-2.142,0-2.707c-0.833-0.506-1.599-1.129-2.28-1.86c-2.045-2.2-3.324-5.335-3.324-8.801
			c0-3.602,1.388-6.844,3.576-9.045c0.614-0.623,1.296-1.168,2.028-1.606c0.942-0.565,0.942-2.142,0-2.707
			c-0.766-0.458-1.473-1.032-2.104-1.694c-0.757-0.769-1.414-1.665-1.944-2.658c-0.984-1.84-1.557-4.002-1.557-6.309
			c0-3.602,1.388-6.844,3.576-9.045c0.614-0.633,1.296-1.178,2.028-1.616c0.959-0.574,0.909-2.152-0.05-2.736
			c-0.732-0.448-1.422-0.993-2.036-1.645c-2.389-2.434-3.811-6.134-3.467-10.174c0.53-6.212,5.259-10.817,10.652-10.817h119.388
			c5.394,0,10.131,4.605,10.652,10.817c0.337,4.031-1.069,7.73-3.458,10.174c-0.614,0.643-1.304,1.198-2.045,1.645
			c-0.959,0.584-1.01,2.161-0.051,2.736c0.732,0.438,1.414,0.983,2.028,1.616c0.783,0.789,1.473,1.714,2.02,2.736
			c0.984,1.84,1.557,4.001,1.557,6.309c0,3.554-1.355,6.766-3.5,8.967c-0.639,0.662-1.346,1.236-2.104,1.694
			c-0.942,0.565-0.942,2.142,0,2.707c0.732,0.438,1.414,0.983,2.028,1.606c2.188,2.2,3.576,5.442,3.576,9.045
			c0,3.466-1.279,6.601-3.324,8.801c-0.69,0.73-1.447,1.353-2.28,1.86C379.769,721.7,379.769,723.277,380.711,723.842z"/>
		<path class="st8" d="M253.517,746.513l53.243,27.076c5.836,2.968,12.481,2.968,18.317,0l53.243-27.076H253.517z"/>
		<path class="st3" d="M380.711,675.795c0.732,0.438,1.414,0.983,2.028,1.616H249.097c0.614-0.633,1.296-1.178,2.028-1.616
			c0.959-0.574,0.909-2.152-0.05-2.736c-0.732-0.448-1.422-0.993-2.036-1.645h133.768c-0.614,0.643-1.304,1.198-2.045,1.645
			C379.802,673.643,379.752,675.22,380.711,675.795z"/>
		<path class="st3" d="M380.711,699.823c0.732,0.438,1.414,0.983,2.028,1.606H249.097c0.614-0.623,1.296-1.168,2.028-1.606
			c0.942-0.565,0.942-2.142,0-2.707c-0.766-0.458-1.473-1.032-2.104-1.694h133.793c-0.639,0.662-1.346,1.236-2.104,1.694
			C379.769,697.681,379.769,699.258,380.711,699.823z"/>
		<path class="st3" d="M380.711,723.842c0.665,0.399,1.279,0.886,1.851,1.441H249.274c0.572-0.555,1.186-1.042,1.851-1.441
			c0.942-0.565,0.942-2.142,0-2.707c-0.833-0.506-1.599-1.129-2.28-1.86h134.147c-0.69,0.73-1.447,1.353-2.28,1.86
			C379.769,721.7,379.769,723.277,380.711,723.842z"/>
		<path class="st6" d="M341.724,721.091c0.833-0.506,1.59-1.129,2.28-1.86c2.045-2.2,3.324-5.335,3.324-8.801
			c0-3.602-1.388-6.844-3.576-9.045c-0.614-0.623-1.296-1.168-2.028-1.607c-0.942-0.565-0.942-2.142,0-2.707
			c0.757-0.458,1.464-1.032,2.104-1.694c2.146-2.2,3.5-5.413,3.5-8.967c0-2.307-0.572-4.469-1.557-6.309
			c-0.547-1.022-1.237-1.947-2.019-2.736c-0.614-0.633-1.296-1.178-2.028-1.616c-0.959-0.574-0.909-2.152,0.051-2.736
			c0.74-0.448,1.43-1.003,2.045-1.645c2.39-2.444,3.795-6.144,3.458-10.174c-0.522-6.211-5.259-10.817-10.652-10.817h-44.401
			c-5.393,0-10.122,4.605-10.652,10.817c-0.345,4.04,1.077,7.74,3.467,10.174c0.614,0.652,1.304,1.197,2.036,1.645
			c0.959,0.584,1.01,2.161,0.05,2.736c-0.732,0.438-1.414,0.983-2.028,1.616c-2.188,2.2-3.576,5.442-3.576,9.045
			c0,2.307,0.572,4.469,1.557,6.309c0.53,0.993,1.186,1.889,1.944,2.658c0.631,0.662,1.338,1.237,2.103,1.694
			c0.942,0.565,0.942,2.142,0,2.707c-0.732,0.438-1.414,0.983-2.028,1.607c-2.188,2.2-3.576,5.442-3.576,9.045
			c0,3.466,1.279,6.601,3.324,8.801c0.682,0.73,1.447,1.353,2.28,1.86c0.942,0.565,0.942,2.142,0,2.707
			c-0.665,0.399-1.279,0.886-1.851,1.441c-2.289,2.2-3.753,5.52-3.753,9.22c0,3.301,1.17,6.299,3.046,8.48
			c1.885,2.181,4.476,3.534,7.337,3.534h45.049c5.705,0,10.375-5.413,10.375-12.014c0-2.307-0.572-4.469-1.557-6.309
			c-0.589-1.1-1.338-2.083-2.196-2.911c-0.572-0.555-1.186-1.042-1.851-1.441C340.781,723.233,340.781,721.656,341.724,721.091z"/>
	</g>
	<g>
		<path class="st1" d="M86.92,692.591c0,4.857-3.937,8.794-8.794,8.794s-8.794-3.937-8.794-8.794c0-4.857,3.937-8.794,8.794-8.794
			S86.92,687.735,86.92,692.591z"/>
		<path class="st1" d="M86.92,745.355c0,4.912-4.026,8.883-8.959,8.792c-4.841-0.089-8.629-4.238-8.629-9.08
			c0-6.68,0-19.127,0-25.807c0-4.842,3.788-8.991,8.629-9.08c4.932-0.09,8.959,3.881,8.959,8.792V745.355z"/>
		<path class="st1" d="M130.889,683.797c4.912,0,8.883,4.026,8.792,8.959c-0.089,4.841-4.242,8.629-9.084,8.629h-25.799
			c-4.842,0-8.996-3.788-9.084-8.629c-0.09-4.932,3.881-8.959,8.792-8.959H130.889z"/>
		<path class="st1" d="M130.889,710.179c4.912,0,8.883,4.027,8.792,8.959c-0.089,4.841-4.242,8.629-9.084,8.629h-25.799
			c-4.842,0-8.996-3.788-9.084-8.629c-0.09-4.932,3.881-8.959,8.792-8.959H130.889z"/>
	</g>
	<path class="st13" d="M286.685,698.691c-3.614-2.483-7.429-0.14-14.35,4.503c-4.651,3.12-9.08,2.675-11.485,2.047l-0.484,0.644
		l-2.596-2.305l0.71-0.666l-41.522-50.846l-69.733-20.826c0.485-0.056,0.753-0.089,0.753-0.089s-0.462-3.799-0.498-8.602
		c2.93-7.992,12.687-17.87,19.821-37.572c1.044-2.882,1.824-5.501,2.407-7.9l36.509,10.608c1.195,0.347,2.528,0.097,3.596-0.676
		l39.972-28.909l-1.585-2.544c0.848-0.531,1.611-0.974,2.257-1.29c8.825-4.315,14.046-9.208,14.47-16.3
		c0.424-7.093-7.434-0.491-10.826,3.169c-3.392,3.659-1.014-1.441-2.721-4.259c-1.706-2.818-6.24,11.366-6.24,11.366
		s-0.384,0.254-1.061,0.701l-1.056-1.695l-34.224,23.57c-0.909,0.626-2.047,0.736-2.977,0.286
		c-7.14-3.457-37.486-18.151-42.605-20.626c-0.269-0.153-0.511-0.265-0.713-0.344c-0.004-0.002-0.012-0.006-0.015-0.007l0,0.002
		c0,0-0.001,0-0.001,0c0,0,0,0,0.001,0l0.458-2.458l0.886-4.748c7.401-0.172,14.517-8.338,16.208-18.895
		c0.146-0.916,0.247-1.82,0.305-2.708c0.063-0.964,0.073-1.909,0.037-2.833c3.164-0.556,5.827-2.22,8.49-5.938
		c6.006-8.385,0.479-20.932-10.37-18.313c-10.849,2.619-13.172,7.769-15.285,8.096c-2.113,0.327-7.746-2.717-13.535,3.402
		c-2.082,2.201-4.315,7.162-5.593,12.243c-2.24,8.903-1.544,18.166,8.022,13.609c0.221,0.986,0.504,1.927,0.843,2.817l-1.109,1.701
		l-6.176,9.475c-0.835,0.3-14.253-3.08-25.025,8.328c-0.09,0.095-0.179,0.196-0.269,0.295c-0.066,0.044-0.109,0.073-0.109,0.073
		L81.98,597.141c-1.623,1.785-2.299,4.196-1.8,6.418l2.696,15.223c-1.021,1.145-2.008,2.326-2.932,3.558
		c0.002,0.015,0.005,0.03,0.007,0.046c-4.52,6.039-7.611,13.203-6.778,22.273l-0.035,0.075c0,0,0.023-0.008,0.039-0.015
		c0,0.005,0.001,0.01,0.001,0.015c0,0,0.023-0.014,0.064-0.038c0.787-0.285,6.415-2.28,13.576-3.66l1.995,11.265l1.599-0.528
		c0.251,1.286,0.423,2.409,0.477,3.305c0.59,9.744,3.238,16.121,10.028,18.392c6.79,2.271,3.554-7.129,1.362-11.397
		c-2.192-4.269,1.835-0.613,5.307-1.542c3.473-0.928-8.583-9.066-8.583-9.066s-0.183-0.884-0.484-2.369l0.866-0.286l0.069-9.096
		c1.781,0.002,3.544,0.105,5.254,0.332c3.887,25.415,64.523,42.174,64.523,42.174l-4.807,61.928h1.521l-0.636,5.107l-0.875,0.083
		l-2.706,11.363c-0.324,1.361,0.54,2.628,1.898,2.783c8.392,0.957,35.105,3.708,34.977-0.1c-0.152-4.517-4.168-5.833-11.758-7.947
		c-5.101-1.421-7.304-5.15-8.201-7.444l-0.779,0.074l0.322-3.919h1.638l14.472-71.989l11.318,1.478
		c16.665,23.25,42.144,39.33,42.144,39.33l0.718-0.673l4.08,3.971l-0.544,0.723l6.943,8.63c0.832,1.034,2.417,1.096,3.481,0.137
		C269.017,719.825,289.732,700.784,286.685,698.691z"/>
	<g>
		<polygon class="st1" points="240.583,708.769 250.228,717.497 256.911,706.752 249.083,700.25 		"/>
		<path class="st14" d="M281.629,698.691c-3.807-2.483-7.44-0.14-14,4.503c-4.409,3.12-8.872,2.675-11.327,2.047l-7.926,11.745
			l7.613,8.63c0.912,1.034,2.502,1.096,3.492,0.137C265.601,719.825,284.838,700.784,281.629,698.691z"/>
		<polygon class="st1" points="164.701,738.097 164.092,751.09 176.635,749.422 176.68,739.246 		"/>
		<path class="st14" d="M198.568,763.382c-0.502-4.517-4.62-5.833-12.375-7.947c-5.211-1.421-7.704-5.15-8.779-7.444l-14.105,1.345
			l-1.824,11.363c-0.219,1.361,0.744,2.628,2.114,2.783C172.065,764.44,198.992,767.19,198.568,763.382z"/>
		<path class="st15" d="M224.03,551.274c2.639-1.819,4.375-3.031,4.375-3.031s3.433-14.184,5.358-11.366
			c1.925,2.818-0.056,7.918,3.052,4.259c3.108-3.659,10.454-10.261,10.58-3.169c0.126,7.093-4.715,11.986-13.205,16.3
			c-1.849,0.939-4.575,2.921-7.807,5.411L224.03,551.274z"/>
		<path class="st15" d="M88.798,646.171c0.885,3.19,1.483,5.294,1.483,5.294s12.687,8.138,9.287,9.066
			c-3.401,0.928-7.711-2.727-5.187,1.542s6.489,13.668-0.477,11.397c-6.967-2.27-10.109-8.648-11.456-18.392
			c-0.293-2.122-1.307-5.452-2.647-9.447L88.798,646.171z"/>
		<path class="st7" d="M63.893,644.735c0,0,21.295-8.148,35.962-3.694l-2.282-24.988l-30.747,21.186L63.893,644.735z"/>
		<path class="st14" d="M135.891,630.938l72.392,21.131l45.468,50.846l-9.941,10.05c0,0-26.727-16.08-45.197-39.33l-31.942-4.129
			c0,0-53.004-5.627-55.185-39.97L135.891,630.938z"/>
		<path class="st16" d="M94.662,636.945c1.216,27.144,68.235,45.273,68.235,45.273v61.928h15.401l9.452-76.595l-52.629-37.157
			l-38.917-1.411c-0.108,0.251-0.209,0.499-0.306,0.746C94.939,632.197,94.554,634.605,94.662,636.945z"/>
		<path class="st17" d="M94.662,636.945c7.555,4.713,36.423-5.046,36.423-5.046l-35.188-2.171
			C94.939,632.197,94.554,634.605,94.662,636.945z"/>
		<path class="st16" d="M145.899,550.128c0.633,0.291,36.934,17.231,44.962,20.978c0.964,0.45,2.094,0.34,2.954-0.286l32.395-23.57
			l7.605,10.853l-37.728,28.909c-1.008,0.772-2.322,1.023-3.543,0.676l-44.706-12.703L145.899,550.128z"/>
		<path class="st14" d="M149.941,553.799c0,0,10.647,5.976,3.477,31.181c-7.171,25.206-19.882,34.332-17.057,44.002l-21.946-3.151
			L149.941,553.799z"/>
		<path class="st1" d="M93.697,623.911v0.003c0.049,1.74,0.107,3.308,0.16,4.651c0.127,3.093,0.241,4.98,0.241,4.98
			c5.867,2.171,43.581-2.392,43.581-2.392s-2.08-10.43-1.209-18.578c0.867-8.148,16.323-30.338,16.323-45.902
			c0-15.564-7.523-16.73-7.523-16.73s-11.059-4.019-16.6-4.263c-5.541-0.244-26.968,21.049-31.965,34.52
			C93.267,589.466,93.325,611.229,93.697,623.911z"/>
		<path class="st8" d="M93.697,623.911v0.003c0.049,1.74,0.107,3.308,0.16,4.651c27.916-19.996,35.094-37.577,35.204-37.858
			l-33.079,25.609L93.697,623.911z"/>
		<path class="st15" d="M128.266,546.384c0,0,8.996,7.086,17.633,3.745l0.267-2.458l0.922-8.458l-11.196-6.111l-1.724,3.002
			L128.266,546.384z"/>
		<path class="st16" d="M63.934,644.735c0,0,4.795-3.018,11.897-7.907c1.235-0.851,2.542-1.757,3.905-2.715
			c2.027-1.424,4.179-2.96,6.414-4.586c1.594-1.157,3.227-2.363,4.889-3.608c20.371-15.267,44.683-36.433,44.112-50.119
			c-0.978-23.467-6.423-30.221-6.423-30.221c-0.812,0.3-14.492-3.08-24.378,8.328c-9.886,11.408-15.808,47.642-24.445,56.117
			c-1.946,1.907-3.963,3.898-5.893,6.023c-1.789,1.969-3.504,4.055-5.01,6.294C64.921,628.406,62.366,635.606,63.934,644.735z"/>
		<path class="st17" d="M82.674,609.798l3.435,19.729c1.594-1.157,3.227-2.363,4.889-3.608l1.454-18.621l25.547-31.825l-3.057-4.029
			L82.674,609.798z"/>
		<path class="st17" d="M68.961,622.34c1.796,8.047,6.828,14.488,6.828,14.488c1.235-0.851,2.542-1.757,3.905-2.715l-5.723-18.067
			C72.182,618.015,70.467,620.101,68.961,622.34z"/>
		<path class="st16" d="M121.584,552.006c0,0,9.615,11.571-3.585,23.467c-10.842,9.771-24.543,23.5-29.092,28.094
			c-0.982,0.991-1.477,2.363-1.357,3.753l2.907,41.488l-10.302,3.492l-12.416-48.742c-0.672-2.222-0.183-4.633,1.301-6.418
			l34.96-42.866C104.001,554.275,116.369,545.324,121.584,552.006z"/>
		<path class="st18" d="M134.168,536.104c3.768,9.745,9.729,11.33,11.998,11.568l0.922-8.458l-11.196-6.111L134.168,536.104z"/>
		<path class="st16" d="M134.528,531.366l-1.549-11.3l-7.975-2.09C123.431,527.023,124.911,536.451,134.528,531.366z"/>
		<path class="st15" d="M133.097,521.694c-0.91,11.067,4.692,20.557,12.512,21.204c7.825,0.643,14.903-7.803,15.816-18.87
			c0.075-0.916,0.106-1.82,0.095-2.708c-0.122-9.862-5.431-17.901-12.606-18.496c-5.551-0.455-10.726,3.666-13.592,10.049
			C134.149,515.484,133.364,518.478,133.097,521.694z"/>
		<path class="st18" d="M135.321,512.873l1.542,9.871c0,0,1.168-4.681,13.675-1.904c5.217,1.158,8.695,1.03,10.981,0.481
			c-0.122-9.862-5.431-17.901-12.606-18.496C143.362,502.369,138.188,506.49,135.321,512.873z"/>
		<path class="st16" d="M157.575,494.235c-10.645,2.619-12.569,7.769-14.657,8.096c-2.088,0.327-7.957-2.717-13.27,3.402
			c-1.911,2.201-3.759,7.162-4.643,12.243l7.975,2.09l-0.206-1.502c0,0,1.839,7.479,3.852,7.312
			c2.012-0.167-2.559-10.37,9.334-8.681c11.893,1.689,18.052,3.737,23.407-4.648C174.721,504.163,168.22,491.616,157.575,494.235z"
			/>
		<path class="st15" d="M135.686,521.846c-0.335-1.37-1.203-2.581-2.485-3.171c-1.053-0.485-2.48-0.603-3.975,0.867
			c-2.99,2.938,1.373,9.856,5.047,8.472l1.539-1.996C136.072,524.217,135.927,522.831,135.686,521.846z"/>
	</g>
	<g>
		<g>
			<g>
				<path class="st3" d="M824.211,741.223v-5.894c0-0.453-0.367-0.821-0.821-0.821h-93.305c-0.453,0-0.821,0.367-0.821,0.821v5.894
					c0,0.453,0.367,0.821,0.821,0.821h93.305C823.844,742.043,824.211,741.676,824.211,741.223z"/>
			</g>
			<path class="st3" d="M826.889,81.445h-7.381V58.026c0-0.225-0.182-0.407-0.407-0.407h-84.175c-0.225,0-0.407,0.182-0.407,0.407
				v23.419h-7.381c-0.449,0-0.813,0.364-0.813,0.813v18.892v653.824c0,0.449,0.364,0.813,0.813,0.813h11.231
				c0.449,0,0.813-0.364,0.813-0.813v-15.439l75.661-46.337v61.777c0,0.449,0.364,0.813,0.813,0.813h11.231
				c0.449,0,0.813-0.364,0.813-0.813V101.15V82.258C827.702,81.809,827.338,81.445,826.889,81.445z M747.607,101.963l61.972,37.957
				h-70.395v-37.957H747.607z M739.184,465.38v-43.273l70.651,43.273H739.184z M807.047,472.916l-67.863,41.566v-41.566H807.047z
				 M739.184,363.206h69.941l-69.941,42.839V363.206z M739.184,355.67v-41.997l68.567,41.997H739.184z M745.587,301.874
				l69.257-42.419v42.419H745.587z M814.845,309.41v42.418l-69.257-42.418H814.845z M739.184,255.048h69.492l-69.492,42.564V255.048
				z M739.184,247.513v-42.275l69.019,42.275H739.184z M807.496,581.074l-68.313,41.841v-41.841H807.496z M739.184,573.538v-42.995
				l70.198,42.995H739.184z M744.682,525.725h70.162v42.972L744.682,525.725z M746.492,518.19l68.352-41.866v41.866H746.492z
				 M745.137,417.568h69.707v42.695L745.137,417.568z M814.845,410.032h-68.805l68.805-42.141V410.032z M746.039,201.252h68.805
				v42.143L746.039,201.252z M814.845,193.716h-69.71l69.71-42.696V193.716z M814.845,584.759v41.591H746.94L814.845,584.759z
				 M739.184,189.176v-41.721H807.3L739.184,189.176z M814.845,633.885v43.248l-70.609-43.248H814.845z M739.184,638.976
				l70.588,43.239h-70.588V638.976z M814.845,134.959l-53.872-32.996h53.872V134.959z M739.184,689.751h67.913l-67.913,41.598
				V689.751z"/>
			<g>
				<path class="st3" d="M869.706,777.327v-34.885c0-2.683-2.175-4.858-4.858-4.858H690.839c-2.683,0-4.858,2.175-4.858,4.858
					v34.885c0,2.683,2.175,4.858,4.858,4.858h174.008C867.531,782.185,869.706,780.01,869.706,777.327z"/>
			</g>
		</g>
		<path class="st3" d="M879.495,51.61L833.284,9.915l-6.315-5.702l-4.154-3.751L822.301,0h-6.307h-353.93
			c-0.681,0-1.354,0.219-1.909,0.656l-1.194,0.933L394.904,51.61l-0.849,0.664c-0.757,0.58-1.194,1.489-1.194,2.439v4.457
			c0,1.194,0.681,2.279,1.749,2.792c0.429,0.21,0.891,0.311,1.354,0.311h481.892h13.464L879.495,51.61z M810.309,9.915
			l-45.37,40.955L719.425,9.915H810.309z M466.574,9.915h11.793l46.341,41.695h-58.134V9.915z M491.85,9.915h90.889l-45.367,40.957
			L491.85,9.915z M594.177,11.739l44.315,39.871h-88.476L594.177,11.739z M605.636,9.915h90.887l-45.364,40.957L605.636,9.915z
			 M707.962,11.738l44.311,39.872h-88.472L707.962,11.738z M457.554,14.34v37.27h-47.05L457.554,14.34z M777.586,51.61l44.21-39.921
			L866.04,51.61H777.586z"/>
		<rect x="734.52" y="62.274" class="st3" width="84.988" height="19.171"/>
	</g>
	<path class="st6" d="M517.118,337.5l-6.459,48.258h-62.238l6.277-46.915l-10.401-1.343l-14.279,106.753
		c0.862,0.1,1.719,0.223,2.564,0.381c2.663,0.487,5.227,1.25,7.667,2.253l7.251-54.23h62.232l-7.492,56.02h-58.237
		c3.391,1.842,6.477,4.177,9.163,6.905h48.153l-7.984,59.692h-46.598c-6.101,3.995-13.393,6.318-21.231,6.318
		c-0.44,0-0.88-0.006-1.314-0.023c-0.428,0.018-0.868,0.023-1.302,0.023c-1.079,0-2.147-0.047-3.203-0.129l-10.126,75.702h10.583
		l1.003-7.497h48.61c0.833-2.388,1.86-4.699,3.068-6.905h-50.757l8.108-60.584h62.238l-6.09,45.331
		c0.939-0.681,1.901-1.32,2.898-1.924c0.681-0.422,1.379-0.821,2.083-1.203c2.2-1.191,4.371-2.423,6.512-3.702l29.702-221.837
		L517.118,337.5z"/>
	<path class="st19" d="M443.844,337.169L650.4,788.375l9.965-1.341l-25.989-57h62.236l26.604,58.341l9.965-1.341L526.624,335.827
		l-9.965,1.341l21.49,46.916h-62.236l-22.104-48.258L443.844,337.169z M541.311,390.987l25.66,56.02h-62.236l-25.66-56.02H541.311z
		 M566.153,581.093l-27.752-60.587h62.236l27.752,60.587H566.153z M631.551,587.995l29.175,63.693h-62.236l-29.175-63.693H631.551z
		 M535.24,513.604l-27.343-59.694h62.236l27.343,59.694H535.24z M631.214,723.131l-29.563-64.541h62.236l29.563,64.541H631.214z"/>
	<path class="st13" d="M712.626,706.114c-0.34-2.255-0.317-6.429-2.93-10.403c-0.47-0.715-1.435-0.911-2.195-0.441
		c-0.175,0.108-0.368,0.224-0.575,0.346l-5.084-10.989l0.736-0.463l-22.211-72.244c0,0-9.244-43.484-11.177-48.329
		c-1.937-4.852,0.572-15.052-0.896-26.089c-0.628-4.727-3.926-9.976-7.495-14.427c-1.546-1.931-3.139-3.706-4.59-5.232
		c0.252,0.007,0.494,0.012,0.717,0.017c1.381,0.028,2.119-2.386,2.194-3.769c0.099-1.822-0.056-4.393-1.216-6.862
		c-0.219-0.466-0.462-0.961-0.719-1.482c3.423,1.833,7.625,3.046,11.156,0.94c6.331-3.774,2.671-19.247,1.519-23.517
		c1.589-1.798,2.619-4.151,3.086-7.133c1.999-12.769-15.257-27.549-15.148-47.561c0.029-5.353-1.835-10.471-5.222-14.455
		c-5.366-6.312-14.435-12.907-26.91-7.892c-11.077,4.453-10.998,8.743-8.325,12.468c-2.431,6.179-8.068,23.109,2.083,25.401
		c-0.34,1.155-0.672,2.341-0.988,3.547c-1.329,0.224-14.917,2.63-21.405,8.51c-6.826,6.191-20.491,22.246-20.491,22.246
		l-32.071-21.242l-1.181,1.518c-1.881-1.378-3.057-2.25-3.057-2.25s-2.673-14.728-4.84-11.831c-2.168,2.897-0.434,8.201-3.423,4.376
		c-2.99-3.825-10.183-10.745-10.754-3.401c-0.571,7.344,4.136,12.466,12.656,17.03c1.108,0.593,2.525,1.586,4.16,2.838l-1.235,1.588
		c0,0,32.165,32.947,40.234,32.109c8.068-0.838,24.719-16.391,24.719-16.391s0.597,9.412,4.424,13.13
		c0.469,0.462,0.993,0.833,1.567,1.089c5.239,2.338-1.848,17.224,2.125,18.061c0.242,0.051,0.643,0.108,1.174,0.171l0.061,2.816
		l0.088,4.117c0,0-58.362,30.691-55.275,42.732c3.09,12.04,59.144,62.547,59.144,62.547l0.761-0.59l3.922,6.733
		c-0.38-0.174-0.752-0.374-1.112-0.61c-0.77-0.504-1.839-0.159-2.225,0.717c-1.529,3.467-5.155,10.576-9.674,11.893
		c-6.023,1.756-9.725,3.93-9.797,7.107h40.555c0,0,3.001-11.225-2.161-20.763c-0.24-0.444-0.792-0.611-1.257-0.363
		c-0.167,0.089-0.36,0.189-0.572,0.296c-1.812-3.377-5.214-9.579-7.177-13.15l1.256-0.974l-13.869-21.961l-14.838-23.485
		c-0.671-1.065-0.03-2.531,1.244-2.821l31.736-7.279l11.755,36.501l2.312,7.181l4.036,12.536l39.862,73.919l1.501-0.944l3.854,7.971
		c-0.935-0.017-1.873-0.116-2.798-0.344c-0.989-0.244-1.978,0.526-1.961,1.554c0.058,3.526-0.222,10.146-2.958,12.582
		c-2.285,2.035-5.657,4.976-8.035,7.489c-1.481,1.565-0.503,4.051,1.599,4.051h18.79
		C699.807,724.552,713.005,708.623,712.626,706.114z"/>
	<g>
		<path class="st15" d="M535.432,462.138c-1.817,2.238-3.583,4.514-5.284,6.832c-3.747-2.976-6.918-5.379-9.006-6.47
			c-8.744-4.564-13.702-9.686-13.491-17.03c0.211-7.344,7.744-0.424,10.921,3.401c3.177,3.825,1.183-1.479,3.209-4.376
			c2.026-2.897,5.42,11.831,5.42,11.831S530.739,458.856,535.432,462.138z"/>
		<polygon class="st1" points="699.379,683.412 706.737,697.794 695.867,702.644 688.341,688.513 		"/>
		<path class="st1" d="M610.242,625.298l6.021,9.532c0,0,14.131-0.502,14.131-0.753c0-0.251-10.787-18.229-10.787-18.229
			L610.242,625.298z"/>
		<path class="st16" d="M621.782,512.581v43.484l1.381,3.728l0.841,2.263l16.205,43.683l4.65,12.536l43.484,73.919l12.371-8.029
			l-25.751-72.244c0,0-11.375-43.484-13.546-48.329c-2.175-4.852-0.165-15.052-2.175-26.089c-0.859-4.727-4.415-9.976-8.202-14.427
			c-4.819-5.671-10.009-10.057-10.494-10.461c-0.026-0.022-0.037-0.033-0.037-0.033H621.782z"/>
		<polygon class="st17" points="623.161,559.792 640.209,605.738 635.744,558.236 		"/>
		<path class="st16" d="M548.197,564.759c3.68,12.04,62.209,62.547,62.209,62.547l12.044-9.704l-14.945-21.961l-15.988-23.485
			c-0.724-1.065-0.154-2.531,1.105-2.821l31.382-7.28l17.179-3.985l-7.401-35.951l-1.939-9.414l-0.026-0.125H600.71l0.033,0.448
			l0.345,4.881l0.29,4.117C601.378,522.028,544.521,552.719,548.197,564.759z"/>
		<path class="st20" d="M706.181,695.27c-2.586,1.647-8.924,5.076-14.952,3.606c-1.001-0.244-1.952,0.526-1.885,1.554
			c0.231,3.526,0.275,10.146-2.341,12.582c-2.186,2.035-5.413,4.975-7.668,7.488c-1.404,1.565-0.305,4.051,1.798,4.051h18.789
			c0,0,12.417-15.929,11.916-18.438c-0.451-2.255-0.633-6.429-3.44-10.403C707.893,694.996,706.919,694.8,706.181,695.27z"/>
		<path class="st20" d="M629.62,631.431c-2.403,1.316-9.906,4.874-15.371,1.409c-0.795-0.504-1.847-0.159-2.19,0.717
			c-1.359,3.467-4.637,10.575-9.091,11.893c-5.937,1.756-9.532,3.93-9.449,7.107h40.555c0,0,2.451-11.225-3.178-20.763
			C630.633,631.35,630.073,631.183,629.62,631.431z"/>
		<path class="st17" d="M600.743,513.029l0.345,4.881c3.544,0.536,11.717,1.741,20.694,2.854c3.952,0.492,8.058,0.962,12,1.355
			c6.824,0.672,13.138,1.106,17.259,0.955c-4.819-5.671-10.009-10.057-10.494-10.461l-8.705,0.092l-10.06,0.103L600.743,513.029z"/>
		<path class="st15" d="M603.289,416.346c0,0-12.982,31.958,8.864,27.485s3.979-24.226,3.979-24.226L603.289,416.346z"/>
		<path class="st9" d="M639.843,484.109v16.933c0,0,2.609,2.428,6.111,4.37c3.622,2.012,8.193,3.507,11.825,1.274
			c7.149-4.39,0-24.624,0-24.624L639.843,484.109z"/>
		<path class="st10" d="M524.285,466.926c0,0,33.78,32.947,41.807,32.109c8.027-0.838,23.916-16.391,23.916-16.391
			s1.059,9.412,5.067,13.13c0.492,0.462,1.034,0.833,1.62,1.089c5.353,2.338-1.003,17.224,3.01,18.061
			c3.463,0.719,37.951,2.751,47.206,2.935c1.382,0.028,2.002-2.386,2.009-3.769c0.009-1.822-0.271-4.393-1.553-6.862
			c-2.343-4.515-7.024-11.539-5.183-22.406c1.836-10.872-37.096-37.297-37.096-37.297s-14.58,2.343-21.102,8.529
			c-6.522,6.191-19.401,22.246-19.401,22.246l-33.113-21.242L524.285,466.926z"/>
		<path class="st9" d="M590.008,482.644c0,0,1.059,9.412,5.067,13.13v-18.98L590.008,482.644z"/>
		<path class="st16" d="M643.403,428.475c-0.233-5.353-2.348-10.471-5.93-14.455c-5.676-6.312-15.067-12.906-27.297-7.892
			c-20.852,8.551-0.6,16.502,0,21.002c0.6,4.5-20.102,49.355,7.351,56.256c27.453,6.901,41.854,6.601,43.354-7.351
			C662.255,463.266,644.274,448.486,643.403,428.475z"/>
	</g>
</g>
</svg>
