<svg xmlns="http://www.w3.org/2000/svg" xmlns:xlink="http://www.w3.org/1999/xlink" width="1018" zoomAndPan="magnify" viewBox="0 0 763.5 238.499993" height="318" preserveAspectRatio="xMidYMid meet" version="1.0"><defs><g/><clipPath id="1eb97d70d5"><path d="M 0.550781 0 L 198 0 L 198 191 L 0.550781 191 Z M 0.550781 0 " clip-rule="nonzero"/></clipPath><clipPath id="0e7b01bafe"><rect x="0" width="505" y="0" height="142"/></clipPath></defs><path fill="#ff751f" d="M 197.996094 114.773438 L 197.996094 190.769531 L 132.175781 228.765625 L 66.367188 190.769531 Z M 197.996094 114.773438 " fill-opacity="1" fill-rule="nonzero"/><g clip-path="url(#1eb97d70d5)"><path fill="#ff751f" d="M 0.550781 152.769531 L 0.550781 76.773438 L 132.175781 0.78125 L 175.09375 25.558594 L 197.996094 38.773438 L 66.367188 114.773438 L 66.367188 190.769531 Z M 0.550781 152.769531 " fill-opacity="1" fill-rule="nonzero"/></g><g transform="matrix(1, 0, 0, 1, 220, 76)"><g clip-path="url(#0e7b01bafe)"><g fill="#ffffff" fill-opacity="1"><g transform="translate(0.490624, 107.308879)"><g><path d="M 44.1875 -13.265625 C 48.113281 -13.265625 51.785156 -14.082031 55.203125 -15.71875 C 58.628906 -17.363281 61.664062 -19.722656 64.3125 -22.796875 L 74.46875 -12.734375 C 70.90625 -8.523438 66.359375 -5.171875 60.828125 -2.671875 C 55.296875 -0.179688 49.609375 1.0625 43.765625 1.0625 C 38.128906 1.0625 32.867188 0.0664062 27.984375 -1.921875 C 23.097656 -3.921875 18.867188 -6.628906 15.296875 -10.046875 C 11.734375 -13.472656 8.9375 -17.539062 6.90625 -22.25 C 4.875 -26.957031 3.859375 -32.023438 3.859375 -37.453125 C 3.859375 -42.867188 4.890625 -47.945312 6.953125 -52.6875 C 9.023438 -57.4375 11.84375 -61.519531 15.40625 -64.9375 C 18.976562 -68.363281 23.207031 -71.078125 28.09375 -73.078125 C 32.976562 -75.078125 38.203125 -76.078125 43.765625 -76.078125 C 49.753906 -76.078125 55.566406 -74.8125 61.203125 -72.28125 C 66.835938 -69.75 71.40625 -66.34375 74.90625 -62.0625 L 64.421875 -51.6875 C 61.773438 -54.96875 58.664062 -57.476562 55.09375 -59.21875 C 51.53125 -60.96875 47.753906 -61.84375 43.765625 -61.84375 C 40.410156 -61.84375 37.253906 -61.21875 34.296875 -59.96875 C 31.335938 -58.71875 28.785156 -57.003906 26.640625 -54.828125 C 24.503906 -52.660156 22.828125 -50.09375 21.609375 -47.125 C 20.398438 -44.164062 19.796875 -40.941406 19.796875 -37.453125 C 19.796875 -34.023438 20.421875 -30.832031 21.671875 -27.875 C 22.921875 -24.914062 24.628906 -22.363281 26.796875 -20.21875 C 28.972656 -18.082031 31.539062 -16.390625 34.5 -15.140625 C 37.46875 -13.890625 40.695312 -13.265625 44.1875 -13.265625 Z M 44.1875 -13.265625 "/></g></g></g><g fill="#ffffff" fill-opacity="1"><g transform="translate(76.325426, 107.308879)"><g><path d="M 5.78125 0 L 5.78125 -55.75 L 20.4375 -55.75 L 20.4375 -49.640625 C 22.21875 -52.066406 24.375 -53.90625 26.90625 -55.15625 C 29.4375 -56.40625 32.238281 -57.03125 35.3125 -57.03125 C 36.738281 -56.957031 37.929688 -56.832031 38.890625 -56.65625 C 39.859375 -56.476562 40.695312 -56.175781 41.40625 -55.75 L 41.40625 -42.90625 C 40.332031 -43.40625 39.15625 -43.78125 37.875 -44.03125 C 36.59375 -44.28125 35.273438 -44.40625 33.921875 -44.40625 C 31.066406 -44.40625 28.441406 -43.691406 26.046875 -42.265625 C 23.660156 -40.835938 21.789062 -38.769531 20.4375 -36.0625 L 20.4375 0 Z M 5.78125 0 "/></g></g></g><g fill="#ffffff" fill-opacity="1"><g transform="translate(116.220588, 107.308879)"><g><path d="M 55.75 -6.953125 C 52.320312 -4.171875 48.804688 -2.140625 45.203125 -0.859375 C 41.597656 0.421875 37.585938 1.0625 33.171875 1.0625 C 28.960938 1.0625 25.019531 0.316406 21.34375 -1.171875 C 17.675781 -2.671875 14.503906 -4.703125 11.828125 -7.265625 C 9.148438 -9.835938 7.039062 -12.890625 5.5 -16.421875 C 3.96875 -19.953125 3.203125 -23.75 3.203125 -27.8125 C 3.203125 -31.8125 3.929688 -35.578125 5.390625 -39.109375 C 6.859375 -42.640625 8.875 -45.707031 11.4375 -48.3125 C 14.007812 -50.914062 17.0625 -52.960938 20.59375 -54.453125 C 24.125 -55.953125 27.890625 -56.703125 31.890625 -56.703125 C 35.804688 -56.703125 39.457031 -55.9375 42.84375 -54.40625 C 46.238281 -52.875 49.164062 -50.785156 51.625 -48.140625 C 54.082031 -45.503906 56.003906 -42.347656 57.390625 -38.671875 C 58.785156 -35.003906 59.484375 -31.03125 59.484375 -26.75 L 59.484375 -22.890625 L 17.96875 -22.890625 C 18.96875 -19.398438 20.894531 -16.582031 23.75 -14.4375 C 26.601562 -12.300781 29.957031 -11.234375 33.8125 -11.234375 C 36.238281 -11.234375 38.519531 -11.625 40.65625 -12.40625 C 42.800781 -13.195312 44.617188 -14.304688 46.109375 -15.734375 Z M 31.5625 -44.625 C 28.207031 -44.625 25.316406 -43.601562 22.890625 -41.5625 C 20.472656 -39.53125 18.800781 -36.804688 17.875 -33.390625 L 45.15625 -33.390625 C 44.226562 -36.671875 42.53125 -39.363281 40.0625 -41.46875 C 37.601562 -43.570312 34.769531 -44.625 31.5625 -44.625 Z M 31.5625 -44.625 "/></g></g></g><g fill="#ffffff" fill-opacity="1"><g transform="translate(176.866631, 107.308879)"><g><path d="M 30.5 0 L 16.375 0 L 1.0625 -55.75 L 14.984375 -55.75 L 24.1875 -19.6875 L 35.3125 -55.75 L 47.609375 -55.75 L 58.640625 -19.6875 L 67.84375 -55.75 L 81.53125 -55.75 L 66.125 0 L 52.109375 0 L 41.296875 -35.625 Z M 30.5 0 "/></g></g></g><g fill="#ffffff" fill-opacity="1"><g transform="translate(258.477345, 107.308879)"><g><path d="M 0.328125 -11.875 L 9.203125 -23 C 13.554688 -19.21875 17.742188 -16.453125 21.765625 -14.703125 C 25.796875 -12.960938 30.0625 -12.09375 34.5625 -12.09375 C 39.195312 -12.09375 42.90625 -12.945312 45.6875 -14.65625 C 48.46875 -16.375 49.859375 -18.65625 49.859375 -21.5 C 49.859375 -24.070312 48.910156 -26.070312 47.015625 -27.5 C 45.128906 -28.925781 41.976562 -29.992188 37.5625 -30.703125 L 22.6875 -33.28125 C 16.257812 -34.34375 11.390625 -36.585938 8.078125 -40.015625 C 4.765625 -43.441406 3.109375 -47.863281 3.109375 -53.28125 C 3.109375 -60.269531 5.765625 -65.796875 11.078125 -69.859375 C 16.390625 -73.929688 23.578125 -75.96875 32.640625 -75.96875 C 38.054688 -75.96875 43.53125 -75.039062 49.0625 -73.1875 C 54.59375 -71.332031 59.425781 -68.765625 63.5625 -65.484375 L 55.21875 -53.921875 C 51.21875 -56.992188 47.289062 -59.257812 43.4375 -60.71875 C 39.582031 -62.1875 35.625 -62.921875 31.5625 -62.921875 C 27.425781 -62.921875 24.109375 -62.148438 21.609375 -60.609375 C 19.117188 -59.078125 17.875 -57.03125 17.875 -54.46875 C 17.875 -52.175781 18.691406 -50.390625 20.328125 -49.109375 C 21.972656 -47.828125 24.71875 -46.898438 28.5625 -46.328125 L 42.6875 -43.984375 C 50.113281 -42.765625 55.695312 -40.390625 59.4375 -36.859375 C 63.1875 -33.328125 65.0625 -28.671875 65.0625 -22.890625 C 65.0625 -15.617188 62.1875 -9.804688 56.4375 -5.453125 C 50.695312 -1.109375 43.046875 1.0625 33.484375 1.0625 C 27.492188 1.0625 21.59375 -0.078125 15.78125 -2.359375 C 9.96875 -4.640625 4.816406 -7.8125 0.328125 -11.875 Z M 0.328125 -11.875 "/></g></g></g><g fill="#ffffff" fill-opacity="1"><g transform="translate(325.113541, 107.308879)"><g><path d="M 5.78125 0 L 5.78125 -74.90625 L 20.4375 -78.109375 L 20.4375 -51.359375 C 22.570312 -53.140625 24.941406 -54.492188 27.546875 -55.421875 C 30.148438 -56.347656 32.988281 -56.8125 36.0625 -56.8125 C 42.476562 -56.8125 47.753906 -54.742188 51.890625 -50.609375 C 56.023438 -46.472656 58.09375 -41.160156 58.09375 -34.671875 L 58.09375 0 L 43.4375 0 L 43.4375 -32.53125 C 43.4375 -36.019531 42.382812 -38.832031 40.28125 -40.96875 C 38.175781 -43.113281 35.378906 -44.1875 31.890625 -44.1875 C 29.460938 -44.1875 27.265625 -43.703125 25.296875 -42.734375 C 23.335938 -41.773438 21.71875 -40.40625 20.4375 -38.625 L 20.4375 0 Z M 5.78125 0 "/></g></g></g><g fill="#ffffff" fill-opacity="1"><g transform="translate(387.578277, 107.308879)"><g><path d="M 13.046875 -62.375 C 10.765625 -62.375 8.800781 -63.191406 7.15625 -64.828125 C 5.519531 -66.472656 4.703125 -68.441406 4.703125 -70.734375 C 4.703125 -73.015625 5.519531 -74.972656 7.15625 -76.609375 C 8.800781 -78.253906 10.765625 -79.078125 13.046875 -79.078125 C 15.335938 -79.078125 17.300781 -78.253906 18.9375 -76.609375 C 20.582031 -74.972656 21.40625 -73.015625 21.40625 -70.734375 C 21.40625 -68.441406 20.582031 -66.472656 18.9375 -64.828125 C 17.300781 -63.191406 15.335938 -62.375 13.046875 -62.375 Z M 20.4375 -55.75 L 20.4375 0 L 5.78125 0 L 5.78125 -55.75 Z M 20.4375 -55.75 "/></g></g></g><g fill="#ffffff" fill-opacity="1"><g transform="translate(412.713682, 107.308879)"><g><path d="M 1.921875 -55.75 L 14.34375 -55.75 L 14.34375 -61.09375 C 14.34375 -67.300781 16.160156 -72.082031 19.796875 -75.4375 C 23.429688 -78.789062 28.675781 -80.46875 35.53125 -80.46875 C 37.019531 -80.46875 38.550781 -80.375 40.125 -80.1875 C 41.695312 -80.007812 43.050781 -79.78125 44.1875 -79.5 L 44.1875 -67.203125 C 42.832031 -67.484375 41.640625 -67.691406 40.609375 -67.828125 C 39.578125 -67.972656 38.488281 -68.046875 37.34375 -68.046875 C 34.5625 -68.046875 32.472656 -67.441406 31.078125 -66.234375 C 29.691406 -65.023438 29 -63.207031 29 -60.78125 L 29 -55.75 L 44.1875 -55.75 L 44.1875 -43.4375 L 29 -43.4375 L 29 0 L 14.34375 0 L 14.34375 -43.4375 L 1.921875 -43.4375 Z M 1.921875 -55.75 "/></g></g></g><g fill="#ffffff" fill-opacity="1"><g transform="translate(458.920705, 107.308879)"><g><path d="M 13.375 -15.734375 L 13.375 -43.4375 L 1.921875 -43.4375 L 1.921875 -55.75 L 13.375 -55.75 L 13.375 -69.984375 L 28.03125 -73.296875 L 28.03125 -55.75 L 43.875 -55.75 L 43.875 -43.4375 L 28.03125 -43.4375 L 28.03125 -18.71875 C 28.03125 -16.082031 28.597656 -14.226562 29.734375 -13.15625 C 30.878906 -12.09375 32.878906 -11.5625 35.734375 -11.5625 C 37.085938 -11.5625 38.367188 -11.648438 39.578125 -11.828125 C 40.796875 -12.003906 42.117188 -12.34375 43.546875 -12.84375 L 43.546875 -0.859375 C 41.972656 -0.359375 40.082031 0.0507812 37.875 0.375 C 35.664062 0.695312 33.773438 0.859375 32.203125 0.859375 C 25.992188 0.859375 21.300781 -0.546875 18.125 -3.359375 C 14.957031 -6.179688 13.375 -10.304688 13.375 -15.734375 Z M 13.375 -15.734375 "/></g></g></g></g></g></svg>